<?xml version="1.0" encoding="UTF-8" standalone="no"?><svg xmlns="http://www.w3.org/2000/svg" id="image" width="8" height="28" viewBox="0 0 8 28" preserveAspectRatio="xMidYMid meet" rendering="crispEdges"><rect id="3-1" x="2" y="0" width="1" height="1" shape-rendering="crispEdges" style="fill:#000000;opacity:255;"></rect><rect id="4-1" x="3" y="0" width="1" height="1" shape-rendering="crispEdges" style="fill:#000000;opacity:255;"></rect><rect id="3-2" x="2" y="1" width="1" height="1" shape-rendering="crispEdges" style="fill:#000000;opacity:255;"></rect><rect id="4-2" x="3" y="1" width="1" height="1" shape-rendering="crispEdges" style="fill:#000000;opacity:255;"></rect><rect id="7-3" x="6" y="2" width="1" height="1" shape-rendering="crispEdges" style="fill:#000000;opacity:255;"></rect><rect id="8-3" x="7" y="2" width="1" height="1" shape-rendering="crispEdges" style="fill:#000000;opacity:255;"></rect><rect id="7-4" x="6" y="3" width="1" height="1" shape-rendering="crispEdges" style="fill:#000000;opacity:255;"></rect><rect id="8-4" x="7" y="3" width="1" height="1" shape-rendering="crispEdges" style="fill:#000000;opacity:255;"></rect><rect id="3-5" x="2" y="4" width="1" height="1" shape-rendering="crispEdges" style="fill:#000000;opacity:255;"></rect><rect id="4-5" x="3" y="4" width="1" height="1" shape-rendering="crispEdges" style="fill:#000000;opacity:255;"></rect><rect id="3-6" x="2" y="5" width="1" height="1" shape-rendering="crispEdges" style="fill:#000000;opacity:255;"></rect><rect id="4-6" x="3" y="5" width="1" height="1" shape-rendering="crispEdges" style="fill:#000000;opacity:255;"></rect><rect id="7-7" x="6" y="6" width="1" height="1" shape-rendering="crispEdges" style="fill:#000000;opacity:255;"></rect><rect id="8-7" x="7" y="6" width="1" height="1" shape-rendering="crispEdges" style="fill:#000000;opacity:255;"></rect><rect id="7-8" x="6" y="7" width="1" height="1" shape-rendering="crispEdges" style="fill:#000000;opacity:255;"></rect><rect id="8-8" x="7" y="7" width="1" height="1" shape-rendering="crispEdges" style="fill:#000000;opacity:255;"></rect><rect id="3-9" x="2" y="8" width="1" height="1" shape-rendering="crispEdges" style="fill:#000000;opacity:255;"></rect><rect id="4-9" x="3" y="8" width="1" height="1" shape-rendering="crispEdges" style="fill:#000000;opacity:255;"></rect><rect id="3-10" x="2" y="9" width="1" height="1" shape-rendering="crispEdges" style="fill:#000000;opacity:255;"></rect><rect id="4-10" x="3" y="9" width="1" height="1" shape-rendering="crispEdges" style="fill:#000000;opacity:255;"></rect><rect id="7-11" x="6" y="10" width="1" height="1" shape-rendering="crispEdges" style="fill:#000000;opacity:255;"></rect><rect id="8-11" x="7" y="10" width="1" height="1" shape-rendering="crispEdges" style="fill:#000000;opacity:255;"></rect><rect id="7-12" x="6" y="11" width="1" height="1" shape-rendering="crispEdges" style="fill:#000000;opacity:255;"></rect><rect id="8-12" x="7" y="11" width="1" height="1" shape-rendering="crispEdges" style="fill:#000000;opacity:255;"></rect><rect id="3-13" x="2" y="12" width="1" height="1" shape-rendering="crispEdges" style="fill:#000000;opacity:255;"></rect><rect id="4-13" x="3" y="12" width="1" height="1" shape-rendering="crispEdges" style="fill:#000000;opacity:255;"></rect><rect id="3-14" x="2" y="13" width="1" height="1" shape-rendering="crispEdges" style="fill:#000000;opacity:255;"></rect><rect id="4-14" x="3" y="13" width="1" height="1" shape-rendering="crispEdges" style="fill:#000000;opacity:255;"></rect><rect id="7-15" x="6" y="14" width="1" height="1" shape-rendering="crispEdges" style="fill:#000000;opacity:255;"></rect><rect id="8-15" x="7" y="14" width="1" height="1" shape-rendering="crispEdges" style="fill:#000000;opacity:255;"></rect><rect id="7-16" x="6" y="15" width="1" height="1" shape-rendering="crispEdges" style="fill:#000000;opacity:255;"></rect><rect id="8-16" x="7" y="15" width="1" height="1" shape-rendering="crispEdges" style="fill:#000000;opacity:255;"></rect><rect id="3-17" x="2" y="16" width="1" height="1" shape-rendering="crispEdges" style="fill:#000000;opacity:255;"></rect><rect id="4-17" x="3" y="16" width="1" height="1" shape-rendering="crispEdges" style="fill:#000000;opacity:255;"></rect><rect id="3-18" x="2" y="17" width="1" height="1" shape-rendering="crispEdges" style="fill:#000000;opacity:255;"></rect><rect id="4-18" x="3" y="17" width="1" height="1" shape-rendering="crispEdges" style="fill:#000000;opacity:255;"></rect><rect id="7-19" x="6" y="18" width="1" height="1" shape-rendering="crispEdges" style="fill:#000000;opacity:255;"></rect><rect id="8-19" x="7" y="18" width="1" height="1" shape-rendering="crispEdges" style="fill:#000000;opacity:255;"></rect><rect id="7-20" x="6" y="19" width="1" height="1" shape-rendering="crispEdges" style="fill:#000000;opacity:255;"></rect><rect id="8-20" x="7" y="19" width="1" height="1" shape-rendering="crispEdges" style="fill:#000000;opacity:255;"></rect><rect id="3-21" x="2" y="20" width="1" height="1" shape-rendering="crispEdges" style="fill:#000000;opacity:255;"></rect><rect id="4-21" x="3" y="20" width="1" height="1" shape-rendering="crispEdges" style="fill:#000000;opacity:255;"></rect><rect id="3-22" x="2" y="21" width="1" height="1" shape-rendering="crispEdges" style="fill:#000000;opacity:255;"></rect><rect id="4-22" x="3" y="21" width="1" height="1" shape-rendering="crispEdges" style="fill:#000000;opacity:255;"></rect><rect id="7-23" x="6" y="22" width="1" height="1" shape-rendering="crispEdges" style="fill:#000000;opacity:255;"></rect><rect id="8-23" x="7" y="22" width="1" height="1" shape-rendering="crispEdges" style="fill:#000000;opacity:255;"></rect><rect id="7-24" x="6" y="23" width="1" height="1" shape-rendering="crispEdges" style="fill:#000000;opacity:255;"></rect><rect id="8-24" x="7" y="23" width="1" height="1" shape-rendering="crispEdges" style="fill:#000000;opacity:255;"></rect><rect id="3-25" x="2" y="24" width="1" height="1" shape-rendering="crispEdges" style="fill:#000000;opacity:255;"></rect><rect id="4-25" x="3" y="24" width="1" height="1" shape-rendering="crispEdges" style="fill:#000000;opacity:255;"></rect><rect id="3-26" x="2" y="25" width="1" height="1" shape-rendering="crispEdges" style="fill:#000000;opacity:255;"></rect><rect id="4-26" x="3" y="25" width="1" height="1" shape-rendering="crispEdges" style="fill:#000000;opacity:255;"></rect><rect id="7-27" x="6" y="26" width="1" height="1" shape-rendering="crispEdges" style="fill:#000000;opacity:255;"></rect><rect id="8-27" x="7" y="26" width="1" height="1" shape-rendering="crispEdges" style="fill:#000000;opacity:255;"></rect><rect id="7-28" x="6" y="27" width="1" height="1" shape-rendering="crispEdges" style="fill:#000000;opacity:255;"></rect><rect id="8-28" x="7" y="27" width="1" height="1" shape-rendering="crispEdges" style="fill:#000000;opacity:255;"></rect></svg>