<svg xmlns="http://www.w3.org/2000/svg" width="14" height="16" fill="none"><path fill="#000" d="M8.861 2.555c.501-.598.849-1.415.849-2.24A1.3 1.3 0 0 0 9.678 0c-.8.032-1.771.534-2.353 1.213-.453.517-.873 1.342-.873 2.166 0 .13.016.251.032.292.049.008.13.024.21.024.728 0 1.633-.485 2.167-1.14m.574 1.31c-1.213 0-2.19.735-2.822.735-.67 0-1.544-.687-2.595-.687C2.021 3.913 0 5.563 0 8.667c0 1.94.744 3.986 1.674 5.304C2.466 15.086 3.16 16 4.156 16c.994 0 1.43-.655 2.651-.655 1.254 0 1.529.639 2.628.639 1.083 0 1.803-.995 2.482-1.973a8.6 8.6 0 0 0 1.1-2.272c-.065-.016-2.143-.865-2.143-3.234 0-2.053 1.633-2.975 1.722-3.048-1.067-1.544-2.708-1.592-3.16-1.592"/></svg>