<svg xmlns="http://www.w3.org/2000/svg" width="4" height="4"><path d="M0 0h1v1H0zm1 0h1v1H1z" shape-rendering="crispEdges" style="fill:#000;opacity:255"/><path d="M2 0h1v1H2zm1 0h1v1H3z" shape-rendering="crispEdges" style="fill:#fff;opacity:255"/><path d="M0 1h1v1H0zm1 0h1v1H1z" shape-rendering="crispEdges" style="fill:#000;opacity:255"/><path d="M2 1h1v1H2zm1 0h1v1H3zM0 2h1v1H0zm1 0h1v1H1z" shape-rendering="crispEdges" style="fill:#fff;opacity:255"/><path d="M2 2h1v1H2zm1 0h1v1H3z" shape-rendering="crispEdges" style="fill:#000;opacity:255"/><path d="M0 3h1v1H0zm1 0h1v1H1z" shape-rendering="crispEdges" style="fill:#fff;opacity:255"/><path d="M2 3h1v1H2zm1 0h1v1H3z" shape-rendering="crispEdges" style="fill:#000;opacity:255"/></svg>