<svg xmlns="http://www.w3.org/2000/svg" width="46" height="66" fill="none"><path fill="#fff" stroke="#000" d="M19.5.5h8v1.936h-8zm-12 1.957h31v2.915h-31zm1 2.937h29V44a1.5 1.5 0 0 1-1.5 1.5H10A1.5 1.5 0 0 1 8.5 44z"/><path stroke="#000" d="m13 9.787.899.88a2 2 0 0 1 .601 1.43v26.947a2 2 0 0 1-.907 1.675l-.593.387m6-31.319.899.88a2 2 0 0 1 .601 1.43v26.947a2 2 0 0 1-.907 1.675l-.593.387m6-31.319.899.88a2 2 0 0 1 .601 1.43v26.947a2 2 0 0 1-.907 1.675l-.593.387m6-31.319.899.88a2 2 0 0 1 .601 1.43v26.947a2 2 0 0 1-.907 1.675l-.593.387"/><path fill="#fff" d="M0 47h46v19H0z"/><path fill="#000" d="M7.821 62v-9.543h-3.61v-1.066h8.539v1.066H9.195V62zm7.424 0h-1.271v-7.636h1.271v1.347q.315-.58.684-.902.376-.322.793-.486.424-.17.861-.17.396 0 .684.116v1.319q-.451-.219-.957-.219-.719 0-1.395.629-.67.63-.67 2.229zm8.853 0q-.2-.615-.199-1.06-.834.828-1.428 1.053a3.2 3.2 0 0 1-1.128.219q-.909 0-1.566-.554-.65-.56-.65-1.538 0-1.107.917-1.709.922-.6 3.172-1.039l.683-.13v-.861q0-.705-.471-.984-.472-.288-1.135-.288-.793 0-1.237.349t-.445.814v.109h-1.38v-.103q0-.506.423-1.046.431-.54 1.135-.813a4.3 4.3 0 0 1 1.552-.273q.834 0 1.517.26.684.258.998.703.315.438.315 1.655v2.966q0 .486.02 1.026.027.533.247 1.244zm-.199-3.855-.382.095q-1.935.472-2.475.896t-.54 1.011q0 .301.157.561.165.26.479.403.315.144.622.144.533 0 1.046-.308.52-.314.806-.834.288-.52.287-1.21zm2.769 1.838h1.271v.028q0 .492.376.82.377.321 1.272.321.786 0 1.271-.383.492-.382.493-.902 0-.705-.957-.998l-.65-.198-.43-.137-.882-.273q-1.512-.554-1.511-1.84 0-.901.731-1.585.732-.684 2.174-.684 1.422 0 2.024.588.6.581.601 1.292v.028h-1.278v-.028q0-.382-.39-.601-.383-.22-1.025-.22-.765 0-1.176.322-.403.315-.403.78 0 .355.26.58.265.22.888.397l.615.17.445.13q.93.268 1.155.377.232.11.465.28.321.246.471.595.158.348.158.813 0 1.08-.78 1.819-.772.738-2.262.738-.944 0-1.566-.28a2.5 2.5 0 0 1-.99-.773 1.88 1.88 0 0 1-.37-1.148zM35.548 62h-1.272V50.967h1.272v4.717q.404-.623.78-.923.382-.3.792-.451.417-.158.923-.158.718 0 1.285.294.575.294.889.869.315.567.314 1.825V62H39.26v-4.313q0-1.026-.137-1.45a1.2 1.2 0 0 0-.52-.67 1.6 1.6 0 0 0-.875-.246q-.56 0-1.066.328a2.4 2.4 0 0 0-.813.916q-.3.588-.301 1.682z"/></svg>