<svg xmlns="http://www.w3.org/2000/svg" width="124" height="67" fill="none"><path fill="#fff" stroke="#000" d="M41.5 46.348h41a2 2 0 0 0 2-2V8.234a2 2 0 0 0-.447-1.26L79.806 1.74A2 2 0 0 0 78.253 1H41.5a2 2 0 0 0-2 2v41.348a2 2 0 0 0 2 2Z"/><path stroke="#000" d="M45.588 47V29.752a2 2 0 0 1 2-2h29.353a2 2 0 0 1 2 2V47M73.118 1v13.007a2 2 0 0 1-2 2H51.824a2 2 0 0 1-2-2V1"/><rect width="5.882" height="8.787" x="62.5" y="4.11" fill="#fff" stroke="#000" rx="1.5"/><path fill="#fff" d="M0 48h124v19H0z"/><path fill="#000" d="M4.745 60.614h1.381v.069q0 .881.622 1.23.622.342 1.654.342.903 0 1.511-.527.615-.526.615-1.387 0-.698-.526-1.142-.526-.437-1.6-.875L7.85 58.1q-1.128-.466-1.689-.916a3.1 3.1 0 0 1-.827-1.012 2.76 2.76 0 0 1-.273-1.237q0-1.204.847-2.03.855-.828 2.666-.828 1.662 0 2.338.615.677.616.677 1.436v.068h-1.381v-.068q0-.26-.212-.513-.205-.253-.622-.362a3.4 3.4 0 0 0-.916-.116q-1.019 0-1.51.512-.486.507-.486 1.156 0 .437.232.827.232.383.636.636.411.252 1.374.676l.65.28q1.559.678 2.085 1.422.519.746.519 1.607a3.1 3.1 0 0 1-.424 1.552 2.8 2.8 0 0 1-1.176 1.134q-.751.383-2.003.383-1.189 0-1.989-.287-.793-.28-1.21-.93a2.6 2.6 0 0 1-.41-1.421zm11.238 2.058-3.28-7.308h1.407l2.557 5.674 2.393-5.674h1.278l-3.22 7.643q-.65 1.545-1.087 2.044-.437.506-.93.71-.485.206-1.298.206h-.957v-1.06h.717q.527 0 .923-.143.397-.137.657-.445.266-.308.71-1.353zm5.052-1.689h1.272v.028q0 .492.376.82.375.321 1.271.321.786 0 1.272-.383.492-.382.492-.902 0-.705-.957-.998l-.65-.198-.43-.137-.882-.273q-1.51-.554-1.51-1.84 0-.901.73-1.585.732-.684 2.174-.684 1.422 0 2.024.588.6.581.601 1.292v.028H25.54v-.028q0-.382-.39-.601-.383-.22-1.025-.22-.765 0-1.176.322-.403.315-.403.78 0 .355.26.58.266.22.888.397l.616.17.444.13q.93.268 1.155.377.232.11.465.28.32.246.472.595.157.348.157.813 0 1.08-.78 1.819-.772.738-2.262.738-.943 0-1.565-.28a2.5 2.5 0 0 1-.992-.773 1.88 1.88 0 0 1-.369-1.148zm12.278.937v1.066q-.93.225-1.422.226-.712 0-1.285-.287a2 2 0 0 1-.869-.834q-.294-.547-.294-1.743v-3.924h-1.326v-1.06h1.326V53.56h1.272v1.804h2.228v1.06h-2.228v3.561q0 1.012.157 1.409.157.389.492.574.343.184.814.184.375 0 1.135-.232m6.528-.882h1.271v.068q0 .507-.403 1.033t-1.066.8-1.525.273q-1.743 0-2.693-1.128-.944-1.128-.944-2.85 0-1.764.999-2.92 1.004-1.162 2.584-1.162.867 0 1.572.376.704.376 1.114 1.176.41.793.41 2.215v.424h-5.42q0 1.223.655 2.016.664.793 1.832.793.842 0 1.224-.32.39-.33.39-.726zm-4.02-2.652h4.122v-.15q0-.534-.26-1.033a1.65 1.65 0 0 0-.703-.745 2.16 2.16 0 0 0-1.053-.246q-.711 0-1.313.574-.6.567-.793 1.6M44.19 63h-1.272v-7.636h1.271v1.381q.39-.69.739-.991a2.5 2.5 0 0 1 1.66-.602q.473 0 .903.15.431.144.745.438.315.294.622 1.005.39-.663.766-.97.383-.315.78-.465.402-.158.854-.158.65 0 1.176.308.526.3.806.861.288.561.287 1.907V63h-1.278v-4.245q0-1.347-.164-1.702a1.2 1.2 0 0 0-.444-.54 1.2 1.2 0 0 0-.684-.192q-.567 0-1.046.356-.479.349-.765.943-.288.595-.288 1.668V63h-1.271v-4.245q0-1.347-.15-1.702a1.1 1.1 0 0 0-.465-.547 1.33 1.33 0 0 0-.69-.191q-.52 0-1.026.369a2.5 2.5 0 0 0-.786.97q-.28.602-.28 1.634zm15.667-2.386h1.381v.069q0 .881.622 1.23.622.342 1.655.342.902 0 1.51-.527.615-.526.616-1.387 0-.698-.527-1.142-.525-.437-1.6-.875l-.553-.225q-1.128-.466-1.688-.916a3.1 3.1 0 0 1-.828-1.012 2.76 2.76 0 0 1-.273-1.237q0-1.204.848-2.03.855-.828 2.666-.828 1.66 0 2.337.615.678.616.677 1.436v.068h-1.38v-.068q0-.26-.213-.513-.204-.253-.622-.362a3.4 3.4 0 0 0-.916-.116q-1.018 0-1.51.512-.486.507-.486 1.156 0 .437.233.827.233.383.635.636.41.252 1.375.676l.649.28q1.558.678 2.085 1.422.52.746.52 1.607a3.1 3.1 0 0 1-.425 1.552 2.8 2.8 0 0 1-1.175 1.134q-.753.383-2.003.383-1.19 0-1.99-.287-.792-.28-1.21-.93a2.6 2.6 0 0 1-.41-1.421zm11.99 2.598q-1.496 0-2.556-1.012-1.053-1.019-1.053-3.021 0-1.997 1.053-3.008 1.06-1.02 2.557-1.019 1.489 0 2.543 1.019 1.06 1.011 1.06 3.008 0 2.002-1.06 3.021-1.053 1.012-2.543 1.012m0-1.06q1.026 0 1.648-.813.63-.82.629-2.16 0-1.334-.629-2.147-.623-.82-1.647-.82-1.032 0-1.661.82-.623.814-.623 2.147 0 1.34.623 2.16.628.813 1.66.813M79.06 63h-1.272v-6.576h-1.114v-1.06h1.114v-.355q0-1.662.697-2.352.704-.69 1.832-.69.424 0 1.074.096v1.039a7 7 0 0 0-.855-.069q-.615 0-1.046.301-.43.3-.43 1.435v.595h2.228v1.06H79.06zm8.175-1.08v1.066q-.93.225-1.421.226-.712 0-1.286-.287a2 2 0 0 1-.868-.834q-.294-.547-.294-1.743v-3.924H82.04v-1.06h1.326V53.56h1.272v1.804h2.228v1.06h-2.228v3.561q0 1.012.157 1.409a1.1 1.1 0 0 0 .492.574q.343.184.814.184.376 0 1.134-.232M90.16 63l-2.18-7.636h1.332l1.347 4.751.178 1.135h.144l.198-1.135 1.36-4.75h1.278l1.518 4.737.26 1.148h.136l.199-1.148 1.346-4.738h1.204L96.299 63h-1.285l-1.573-4.99-.212-1.108h-.109l-.226 1.108L91.453 63zm14.246 0q-.198-.615-.198-1.06-.834.828-1.429 1.053a3.2 3.2 0 0 1-1.128.219q-.91 0-1.565-.554-.65-.56-.65-1.538 0-1.107.917-1.709.922-.6 3.171-1.039l.684-.13v-.861q0-.705-.472-.984-.471-.288-1.134-.288-.794 0-1.238.349t-.444.814v.109h-1.38v-.103q0-.506.423-1.046.43-.54 1.135-.813a4.3 4.3 0 0 1 1.551-.273q.834 0 1.518.26.684.258.998.703.314.438.314 1.655v2.966q0 .486.021 1.026.027.533.246 1.244zm-.198-3.855-.383.095q-1.934.472-2.474.896t-.54 1.011q0 .301.157.561.164.26.478.403.315.144.622.144a2 2 0 0 0 1.046-.308q.52-.314.807-.834t.287-1.21zM108.72 63h-1.272v-7.636h1.272v1.347q.314-.58.683-.902.376-.322.793-.486.424-.17.862-.17.396 0 .683.116v1.319a2.2 2.2 0 0 0-.957-.219q-.717 0-1.394.629-.67.63-.67 2.229zm9.133-1.962h1.271v.068q0 .507-.403 1.033-.404.525-1.067.8-.663.273-1.524.273-1.743 0-2.693-1.128-.944-1.128-.944-2.85 0-1.764.998-2.92 1.005-1.162 2.584-1.162.868 0 1.572.376t1.115 1.176q.41.793.41 2.215v.424h-5.421q0 1.223.656 2.016.663.793 1.832.793.841 0 1.224-.32.39-.33.39-.726zm-4.02-2.652h4.122v-.15q0-.534-.26-1.033a1.64 1.64 0 0 0-.704-.745 2.16 2.16 0 0 0-1.053-.246q-.71 0-1.312.574-.601.567-.793 1.6"/></svg>